<svg xmlns="http://www.w3.org/2000/svg" xmlns:xlink="http://www.w3.org/1999/xlink" viewBox="75 7064 3718 1157"><defs><style>.a{fill:#1d582a;}.b{fill:#45833d;}.c{fill:#3e7647;}.d{fill:#83b56f;}.e,.n{fill:#023a7f;}.e,.f,.g{stroke:#023a7f;}.e{stroke-width:30px;}.f,.g,.h{fill:#6786b5;}.f,.h{stroke-width:20px;}.g{stroke-width:5px;}.h{stroke:#6786b5;}.i{fill:#8381b3;}.j{fill:#7b7dad;}.k{fill:#dad5d1;}.l{fill:#e4dede;}.m{fill:#d7d3d1;}.o{fill:#b0a0bd;}.p{fill:#7570a2;}.q{fill:#b0a8c1;}.r,.t{fill:#fdffff;}.s,.v{fill:none;}.s{stroke:#fdffff;stroke-width:100px;}.t{font-size:350px;font-family:GTEestiProDisplayTrial-Bold, GT Eesti Pro Display Trial;font-weight:700;}.u{stroke:none;}.w{filter:url(#a);}</style><filter id="a" x="540.186" y="7930.044" width="95.531" height="90.531" filterUnits="userSpaceOnUse"><feOffset dx="10" dy="5" input="SourceAlpha"/><feGaussianBlur stdDeviation="0.5" result="b"/><feFlood flood-color="#023a7f"/><feComposite operator="in" in2="b"/><feComposite in="SourceGraphic"/></filter></defs><g transform="translate(-5 1676)"><g transform="translate(-420 5017.172)"><g transform="translate(697.424 598.813)"><path class="a" d="M2025.881,801.21s-78.8-12.917-123.268-106.328-34.153-183.3-34.153-183.3,3.356,42.428,63.912,62.568c24.24,4.9,49.4-9.75,93.509-5.046s87.874,25.758,87.874,25.758,47.857,24.01,85.543,75.316,51.133,131.028,51.133,131.028h-224.55Z" transform="translate(-1867.424 -511.587)"/><path class="b" d="M2016.331,721.686s-89.272-25.6-128.855-81.072-35.065-100.449-35.065-100.449-11.842,9.417,35.065,25.018c18.777,3.8,68.328-12.336,102.494-8.692s68.069,19.953,68.069,19.953,36.663,21.445,66.279,56.206,51.612,89.037,51.612,89.037-35.386-23.353-81.485-23.353S2016.331,721.686,2016.331,721.686Z" transform="translate(-1823.14 -467.128)"/><path class="a" d="M2155.128,742.217s-43.91-30.893-89.205-42.976-61.9-2.873-79.326-1.97-37.5-10.271-50.8-24.031-14.774-31.517-14.774-31.517,26.852,37.419,79.632,44.84c15.623,2.2,72.716-14.278,122.568,3.116s89.907,73.841,89.907,73.841a79.467,79.467,0,0,0-27.144-15.748A113.749,113.749,0,0,0,2155.128,742.217Z" transform="translate(-1860.17 -509.212)"/></g><g transform="translate(1091.294 1191.893)"><path class="c" d="M2467.815,1104.081s33.52,12.025,64.174,67.556,11.819,110.7,11.819,110.7-6.085-20.033-36.937-37.362c-16.507-9.271-44.007-4.063-74.428-6.751-25.873-2.287-54.719-12.221-71.348-21.759-70.193-31.838-93.971-112.531-93.971-112.531s48.483,60.293,103.281,54.966S2467.815,1104.081,2467.815,1104.081Z" transform="translate(-2267.124 -1103.938)"/><path class="d" d="M2411.483,1104.977s37,14.783,60.632,52.42,18.856,57.95,18.856,57.95-11.146-20.96-39.691-24.108c-31.245,1.893-35.392.574-55.9-4.189-18.659-3.259-39.929-12.505-52.189-19.538-44.174-26.623-46.357-35.644-46.357-35.644s13.328,4.743,44.339,5.943a105.2,105.2,0,0,0,18.561-3.59A194.043,194.043,0,0,0,2411.483,1104.977Z" transform="translate(-2233.895 -1083.206)"/><path class="c" d="M2402.739,1150.039s4.775,4.462,16.13,7.553,30.362,5.778,30.362,5.778-22.118,3.1-43.491,1.656a227.05,227.05,0,0,1-42-7.434s13.186,1.19,22.976-1.635A105.4,105.4,0,0,0,2402.739,1150.039Z" transform="translate(-2266.319 -1103.509)"/></g><g transform="translate(1081.871 535.766)"><path class="c" d="M2335.824,409.561s-15.15-67.492-4.361-130.49c8.218-47.988,38.695-86.288,60.42-103.177,42.074-30.534,19.044-115.128,19.044-115.128s33.8,45.074,55.446,112.263,7.757,134.33,7.757,134.33-8.214,55.075-37.885,97.478-71.543,79.226-71.543,79.226Z" transform="translate(-2327.586 -60.766)"/><path class="d" d="M2333.5,311.417s-11.106-28.165-3.355-73.426c5.9-34.477,38.934-74.925,52.053-84.446,34.842-20.456,38.3-87.753,38.3-87.753s7.237,19.254,22.792,67.526-10.421,104.673-10.421,104.673-5.9,39.569-27.219,70.033-51.4,56.92-51.4,56.92Z" transform="translate(-2314.741 14.252)"/><path class="c" d="M2259.3,357.609s3.319-41.081,15.673-80.5,33.744-77.188,33.744-77.188-29.689,21.794-46.333,53.444-19.858,78.518-19.858,78.518Z" transform="translate(-2223.815 11.64)"/></g><g transform="translate(821.479 830.387)"><g class="e" transform="translate(0 0)"><circle class="u" cx="151.147" cy="151.147" r="151.147"/><circle class="v" cx="151.147" cy="151.147" r="136.147"/></g><g class="f" transform="translate(15.806 36.552)"><circle class="u" cx="111.137" cy="111.137" r="111.137"/><circle class="v" cx="111.137" cy="111.137" r="101.137"/></g><path class="g" d="M64.243,2.5A61.743,61.743,0,1,1,2.5,64.243,61.743,61.743,0,0,1,64.243,2.5Z" transform="translate(3.921 45.412)"/><g class="e" transform="translate(250.923 177.82)"><circle class="u" cx="119.534" cy="119.534" r="119.534"/><circle class="v" cx="119.534" cy="119.534" r="104.534"/></g><path class="f" d="M90.4,1c49.376,0,89.4,39.806,89.4,88.91s-40.027,88.91-89.4,88.91S1,139.013,1,89.91,41.027,1,90.4,1Z" transform="translate(296.354 201.517)"/><g class="g" transform="translate(370.457 187.698)"><circle class="u" cx="51.864" cy="51.864" r="51.864"/><circle class="v" cx="51.864" cy="51.864" r="49.364"/></g><g class="e" transform="translate(40.503 340.821)"><ellipse class="u" cx="96.319" cy="96.813" rx="96.319" ry="96.813"/><ellipse class="v" cx="96.319" cy="96.813" rx="81.319" ry="81.813"/></g><g class="h" transform="translate(80.019 370.457)"><circle class="u" cx="72.61" cy="72.61" r="72.61"/><circle class="v" cx="72.61" cy="72.61" r="62.61"/></g><g class="w" transform="matrix(1, 0, 0, 1, -396.48, -7523.56)"><path class="g" d="M41.515,2A39.607,39.607,0,0,1,78.272,26.98a39.107,39.107,0,0,1,2.759,14.535A39.515,39.515,0,1,1,41.515,2Z" transform="translate(540.69 7930.54)"/></g><path class="i" d="M2907.066,686.442l25.759,85.988-34.849,82.8,25.069-9.391,19.186-20.121,11.84-22.706,8.8-26.4-8.8-26.314-11.84-28.957L2923.044,697.1Z" transform="translate(-2743.89 -620.805)"/><path class="j" d="M2802.012,1105.481l19.259-45.118,26.411-40.64-26.411,12.964-13.983,9.76-9.213,17.915-2.177,13.81,2.177,12.236Z" transform="translate(-2691.282 -627.806)"/><path class="k" d="M2804.205,826.973l-12.614,5.537a84.018,84.018,0,0,1-14.617,3.126c-7.328.782-7.716.782-14.693,0a82.273,82.273,0,0,1-14.153-3.126l-5.051-2.263-4.587-1.147h-1.955a123.264,123.264,0,0,0,9.378,14.649c5.159,6.739,6.512,8.861,11.255,12.308s9.93,6.627,9.93,6.627a112.571,112.571,0,0,0,14.418,6.884c8.064,3.149,17.839,5.713,17.839,5.713l18.1,2.8,10.564.956-11.34-9.469-8.422-11.116-3.305-13.331Z" transform="translate(-2688.625 -649.18)"/><path class="l" d="M2113.3,991.42l-2.93-16.213,9.034-24.817-21.412,8.124-12.271,16.693-3.528,11.347v15.7l3.528-1.115,8.707-9.722,6.466-2.642Z" transform="translate(-1757.976 -730.694)"/><path class="m" d="M1920.629,1152.569l-29.04,6.209-4.777,7.652v4.852l4.777,7.344,4.07,4.574,17.014,7.064,2.223-18.982,7.906-16.22Z" transform="translate(-1769.439 -747.962)"/><path class="n" d="M1943.146,1153.779c1.5.2,5,1.211,10.444,5.371s7.954,6.261,9.994,9.77a28.6,28.6,0,0,1,2.981,6.63c.6,1.662,1.368,3.556,1.368,8.674,0,9.657.127,13.086-3.679,22.151s-6.7,10.467-14.014,13.956c-4.673,2.229-6.8,3.371-9.514,4.424a32.9,32.9,0,0,1-8.266,1.564c-5.478-.706-9.365-.367-15-1.564s11.17,9.683,11.17,9.683,14.172,3.048,19.991,3.623,4.176.771,8.084.624a35.219,35.219,0,0,0,7.55-1.214l6.631-5.462,8.565-11.677a46.064,46.064,0,0,0,6.741-11.04,60.189,60.189,0,0,0,3.432-13.608s.237-9.113-2.029-16.1a47.173,47.173,0,0,0-6.355-12.4,76.885,76.885,0,0,0-5.9-7.549,61.958,61.958,0,0,0-7.408-7.114c-2.677-2.285-6.983-5.13-12.273-5.565s-8.1-2.646-9.279-2.02-5.822,0-5.822,0l-7.911,2.02S1941.649,1153.578,1943.146,1153.779Z" transform="translate(-1751.027 -739.899)"/><path class="n" d="M26.843,8.946c1.5.2,5,1.211,10.444,5.371s7.954,6.262,9.993,9.771a28.6,28.6,0,0,1,2.981,6.63c.6,1.662,1.368,3.556,1.368,8.674,0,9.657.271,14.935-3.68,22.151S41.25,72.01,33.937,75.5c-4.673,2.229-6.8,3.371-9.514,4.424a32.9,32.9,0,0,1-8.266,1.563c-5.478-.706-9.365-.367-15-1.563s11.17,9.682,11.17,9.682S26.5,92.654,32.317,93.229s4.176.771,8.084.624a35.214,35.214,0,0,0,7.549-1.214l6.631-5.462L63.147,75.5a46.046,46.046,0,0,0,6.741-11.04,60.164,60.164,0,0,0,3.432-13.608s.237-9.113-2.029-16.1a47.173,47.173,0,0,0-6.355-12.4,76.9,76.9,0,0,0-5.9-7.549A61.951,61.951,0,0,0,51.63,7.7c-2.677-2.286-6.983-5.13-12.273-5.565s-8.1-2.645-9.279-2.02-5.823,0-5.823,0l-7.91,2.02S25.345,8.745,26.843,8.946Z" transform="translate(372.138 237.885) rotate(-60)"/><path class="n" d="M36.123,10c6.8,3.958,3.134,1.578,10.2,6.984,6.021,4.605,5.156,4.084,7.8,7.843.254.357,4.762,6.062,4.762,6.062A50.846,50.846,0,0,1,63,38.365c.78,2.159,3.873,12.71,3.873,19.359,0,12.546-2.049,12.879-7.216,23.455s-14.737,14.6-20.715,20.506c-6.071,2.9-6.113,2.857-11.242,5.282-5.778,2.105-2.536,2-10.5,3.706s-8.442,1.554-15.763,0S17.2,121.925,17.2,121.925s18.44-.746,26,0,5.789.192,10.866,0a10.5,10.5,0,0,0,7.643-3.519l10.78-5.154,11.127-15.17A59.819,59.819,0,0,0,92.369,83.74a78.152,78.152,0,0,0,4.458-17.678s.308-11.839-2.635-20.912a61.273,61.273,0,0,0-8.256-16.1,99.932,99.932,0,0,0-7.662-9.807A80.482,80.482,0,0,0,68.651,10c-3.478-2.969-9.071-6.664-15.944-7.229S42.186-.669,40.652.144s-7.564,0-7.564,0L22.812,2.768S29.322,6.039,36.123,10Z" transform="translate(104.051 171.067) rotate(180)"/><path class="o" d="M1857.284,1201.053l36.023-71.7s-27.149,5.188-36.023,23.593S1857.284,1201.053,1857.284,1201.053Z" transform="translate(-1766.669 -733.966)"/><path class="n" d="M981.518,1316.761s-2.45-24.206,3.183-41.983,21.466-26.255,21.466-26.255-31.414,4.142-35.172,23.6S981.518,1316.761,981.518,1316.761Z" transform="translate(-825.582 -840.998)"/><path class="n" d="M11.66,93.922S9.095,64.727,16.336,41.873,41.715,0,41.715,0,5.76,16.858.93,41.873,11.66,93.922,11.66,93.922Z" transform="translate(130.687 166.75) rotate(180)"/><path class="p" d="M11.66,93.922S9.095,64.727,16.336,41.873,41.715,0,41.715,0,5.76,16.858.93,41.873,11.66,93.922,11.66,93.922Z" transform="translate(156.372 180.58) rotate(180)"/><path class="n" d="M7.835,71.107S5.385,46.9,11.017,29.124,30.365,0,30.365,0,4.551,10.748.794,30.207,7.835,71.107,7.835,71.107Z" transform="translate(363.141 256.325) rotate(-60)"/><path class="q" d="M7.835,89.891s-2.45-30.6,3.183-53.073A89.5,89.5,0,0,1,30.365,0S4.551,13.587.794,38.186,7.835,89.891,7.835,89.891Z" transform="matrix(0.766, -0.643, 0.643, 0.766, 302.826, 294.847)"/><path class="q" d="M7.835,89.891s-2.45-30.6,3.183-53.073A89.5,89.5,0,0,1,30.365,0S4.551,13.587.794,38.186,7.835,89.891,7.835,89.891Z" transform="matrix(0.174, -0.985, 0.985, 0.174, 48.489, 218.986)"/></g><path class="r" d="M1944.983,1309.8l61.059,31.868s7.172-50.506,18.245-89.116,34.2-74.939,34.2-74.939l-8.124-25.38-17.277-1.892s-10.462,46.871-32.487,86.736S1944.983,1309.8,1944.983,1309.8Z" transform="translate(-1186.746 135.799)"/><path class="r" d="M2153.277,1085.12l45.259-54.69,13.876-4.922-18.124,52.978s14.256-4.832,28.369-5.737a151.245,151.245,0,0,1,22.85,0l7.08,16.626s-11.462-.315-29.93,2.711-40.006,7.527-40.006,7.527Z" transform="translate(-1168.523 88.905)"/></g><path class="s" d="M0,0H1041V1057H0Z" transform="translate(130 5438)"/><text class="t" transform="translate(1292 5754)"><tspan x="0" y="0">BLUEFIELD</tspan><tspan x="0" y="325">PRESERVATION</tspan><tspan x="0" y="650">SOCIETY</tspan></text></g></svg>