<svg xmlns="http://www.w3.org/2000/svg" xmlns:xlink="http://www.w3.org/1999/xlink" viewBox="75 7064 3813 1157">
  <defs>
    <style>
      .cls-1 {
        fill: #1d582a;
      }

      .cls-2 {
        fill: #45833d;
      }

      .cls-3 {
        fill: #3e7647;
      }

      .cls-4 {
        fill: #83b56f;
      }

      .cls-14, .cls-5 {
        fill: #023a7f;
      }

      .cls-5, .cls-6, .cls-7 {
        stroke: #023a7f;
      }

      .cls-5 {
        stroke-width: 30px;
      }

      .cls-6, .cls-7, .cls-8 {
        fill: #6786b5;
      }

      .cls-6, .cls-8 {
        stroke-width: 20px;
      }

      .cls-7 {
        stroke-width: 5px;
      }

      .cls-8 {
        stroke: #6786b5;
      }

      .cls-9 {
        fill: #8381b3;
      }

      .cls-10 {
        fill: #7b7dad;
      }

      .cls-11 {
        fill: #dad5d1;
      }

      .cls-12 {
        fill: #e4dede;
      }

      .cls-13 {
        fill: #d7d3d1;
      }

      .cls-15 {
        fill: #b0a0bd;
      }

      .cls-16 {
        fill: #7570a2;
      }

      .cls-17 {
        fill: #b0a8c1;
      }

      .cls-18, .cls-20 {
        fill: #fdffff;
      }

      .cls-19, .cls-22 {
        fill: none;
      }

      .cls-19 {
        stroke: #fdffff;
        stroke-width: 100px;
      }

      .cls-20 {
        stroke: rgba(0,0,0,0);
      }

      .cls-21 {
        stroke: none;
      }

      .cls-23 {
        filter: url(#Path_176);
      }
    </style>
    <filter id="Path_176" x="540.186" y="7930.044" width="95.531" height="90.531" filterUnits="userSpaceOnUse">
      <feOffset dx="10" dy="5" input="SourceAlpha"/>
      <feGaussianBlur stdDeviation="0.5" result="blur"/>
      <feFlood flood-color="#023a7f"/>
      <feComposite operator="in" in2="blur"/>
      <feComposite in="SourceGraphic"/>
    </filter>
  </defs>
  <g id="Group_49" data-name="Group 49" transform="translate(-5 1676)">
    <g id="Group_51" data-name="Group 51">
      <g id="Group_48" data-name="Group 48" transform="translate(-420 5017.172)">
        <g id="Group_44" data-name="Group 44" transform="translate(697.424 598.813)">
          <path id="Path_165" data-name="Path 165" class="cls-1" d="M2025.881,801.21s-78.8-12.917-123.268-106.328-34.153-183.3-34.153-183.3,3.356,42.428,63.912,62.568c24.24,4.9,49.4-9.75,93.509-5.046s87.874,25.758,87.874,25.758,47.857,24.01,85.543,75.316,51.133,131.028,51.133,131.028h-224.55Z" transform="translate(-1867.424 -511.587)"/>
          <path id="Path_166" data-name="Path 166" class="cls-2" d="M2016.331,721.686s-89.272-25.6-128.855-81.072-35.065-100.449-35.065-100.449-11.842,9.417,35.065,25.018c18.777,3.8,68.328-12.336,102.494-8.692s68.069,19.953,68.069,19.953,36.663,21.445,66.279,56.206,51.612,89.037,51.612,89.037-35.386-23.353-81.485-23.353S2016.331,721.686,2016.331,721.686Z" transform="translate(-1823.14 -467.128)"/>
          <path id="Path_167" data-name="Path 167" class="cls-1" d="M2155.128,742.217s-43.91-30.893-89.205-42.976-61.9-2.873-79.326-1.97-37.5-10.271-50.8-24.031-14.774-31.517-14.774-31.517,26.852,37.419,79.632,44.84c15.623,2.2,72.716-14.278,122.568,3.116s89.907,73.841,89.907,73.841a79.467,79.467,0,0,0-27.144-15.748A113.749,113.749,0,0,0,2155.128,742.217Z" transform="translate(-1860.17 -509.212)"/>
        </g>
        <g id="Group_45" data-name="Group 45" transform="translate(1091.294 1191.893)">
          <path id="Path_168" data-name="Path 168" class="cls-3" d="M2467.815,1104.081s33.52,12.025,64.174,67.556,11.819,110.7,11.819,110.7-6.085-20.033-36.937-37.362c-16.507-9.271-44.007-4.063-74.428-6.751-25.873-2.287-54.719-12.221-71.348-21.759-70.193-31.838-93.971-112.531-93.971-112.531s48.483,60.293,103.281,54.966S2467.815,1104.081,2467.815,1104.081Z" transform="translate(-2267.124 -1103.938)"/>
          <path id="Path_169" data-name="Path 169" class="cls-4" d="M2411.483,1104.977s37,14.783,60.632,52.42,18.856,57.95,18.856,57.95-11.146-20.96-39.691-24.108c-31.245,1.893-35.392.574-55.9-4.189-18.659-3.259-39.929-12.505-52.189-19.538-44.174-26.623-46.357-35.644-46.357-35.644s13.328,4.743,44.339,5.943a105.2,105.2,0,0,0,18.561-3.59A194.043,194.043,0,0,0,2411.483,1104.977Z" transform="translate(-2233.895 -1083.206)"/>
          <path id="Path_170" data-name="Path 170" class="cls-3" d="M2402.739,1150.039s4.775,4.462,16.13,7.553,30.362,5.778,30.362,5.778-22.118,3.1-43.491,1.656a227.05,227.05,0,0,1-42-7.434s13.186,1.19,22.976-1.635A105.4,105.4,0,0,0,2402.739,1150.039Z" transform="translate(-2266.319 -1103.509)"/>
        </g>
        <g id="Group_46" data-name="Group 46" transform="translate(1081.871 535.766)">
          <path id="Path_171" data-name="Path 171" class="cls-3" d="M2335.824,409.561s-15.15-67.492-4.361-130.49c8.218-47.988,38.695-86.288,60.42-103.177,42.074-30.534,19.044-115.128,19.044-115.128s33.8,45.074,55.446,112.263,7.757,134.33,7.757,134.33-8.214,55.075-37.885,97.478-71.543,79.226-71.543,79.226Z" transform="translate(-2327.586 -60.766)"/>
          <path id="Path_172" data-name="Path 172" class="cls-4" d="M2333.5,311.417s-11.106-28.165-3.355-73.426c5.9-34.477,38.934-74.925,52.053-84.446,34.842-20.456,38.3-87.753,38.3-87.753s7.237,19.254,22.792,67.526-10.421,104.673-10.421,104.673-5.9,39.569-27.219,70.033-51.4,56.92-51.4,56.92Z" transform="translate(-2314.741 14.252)"/>
          <path id="Path_173" data-name="Path 173" class="cls-3" d="M2259.3,357.609s3.319-41.081,15.673-80.5,33.744-77.188,33.744-77.188-29.689,21.794-46.333,53.444-19.858,78.518-19.858,78.518Z" transform="translate(-2223.815 11.64)"/>
        </g>
        <g id="Group_47" data-name="Group 47" transform="translate(821.479 830.387)">
          <g id="Ellipse_34" data-name="Ellipse 34" class="cls-5" transform="translate(0 0)">
            <circle class="cls-21" cx="151.147" cy="151.147" r="151.147"/>
            <circle class="cls-22" cx="151.147" cy="151.147" r="136.147"/>
          </g>
          <g id="Ellipse_35" data-name="Ellipse 35" class="cls-6" transform="translate(15.806 36.552)">
            <circle class="cls-21" cx="111.137" cy="111.137" r="111.137"/>
            <circle class="cls-22" cx="111.137" cy="111.137" r="101.137"/>
          </g>
          <path id="Path_174" data-name="Path 174" class="cls-7" d="M64.243,2.5A61.743,61.743,0,1,1,2.5,64.243,61.743,61.743,0,0,1,64.243,2.5Z" transform="translate(3.921 45.412)"/>
          <g id="Ellipse_36" data-name="Ellipse 36" class="cls-5" transform="translate(250.923 177.82)">
            <circle class="cls-21" cx="119.534" cy="119.534" r="119.534"/>
            <circle class="cls-22" cx="119.534" cy="119.534" r="104.534"/>
          </g>
          <path id="Path_175" data-name="Path 175" class="cls-6" d="M90.4,1c49.376,0,89.4,39.806,89.4,88.91s-40.027,88.91-89.4,88.91S1,139.013,1,89.91,41.027,1,90.4,1Z" transform="translate(296.354 201.517)"/>
          <g id="Ellipse_37" data-name="Ellipse 37" class="cls-7" transform="translate(370.457 187.698)">
            <circle class="cls-21" cx="51.864" cy="51.864" r="51.864"/>
            <circle class="cls-22" cx="51.864" cy="51.864" r="49.364"/>
          </g>
          <g id="Ellipse_38" data-name="Ellipse 38" class="cls-5" transform="translate(40.503 340.821)">
            <ellipse class="cls-21" cx="96.319" cy="96.813" rx="96.319" ry="96.813"/>
            <ellipse class="cls-22" cx="96.319" cy="96.813" rx="81.319" ry="81.813"/>
          </g>
          <g id="Ellipse_39" data-name="Ellipse 39" class="cls-8" transform="translate(80.019 370.457)">
            <circle class="cls-21" cx="72.61" cy="72.61" r="72.61"/>
            <circle class="cls-22" cx="72.61" cy="72.61" r="62.61"/>
          </g>
          <g class="cls-23" transform="matrix(1, 0, 0, 1, -396.48, -7523.56)">
            <path id="Path_176-2" data-name="Path 176" class="cls-7" d="M41.515,2A39.607,39.607,0,0,1,78.272,26.98a39.107,39.107,0,0,1,2.759,14.535A39.515,39.515,0,1,1,41.515,2Z" transform="translate(540.69 7930.54)"/>
          </g>
          <path id="Path_177" data-name="Path 177" class="cls-9" d="M2907.066,686.442l25.759,85.988-34.849,82.8,25.069-9.391,19.186-20.121,11.84-22.706,8.8-26.4-8.8-26.314-11.84-28.957L2923.044,697.1Z" transform="translate(-2743.89 -620.805)"/>
          <path id="Path_178" data-name="Path 178" class="cls-10" d="M2802.012,1105.481l19.259-45.118,26.411-40.64-26.411,12.964-13.983,9.76-9.213,17.915-2.177,13.81,2.177,12.236Z" transform="translate(-2691.282 -627.806)"/>
          <path id="Path_179" data-name="Path 179" class="cls-11" d="M2804.205,826.973l-12.614,5.537a84.018,84.018,0,0,1-14.617,3.126c-7.328.782-7.716.782-14.693,0a82.273,82.273,0,0,1-14.153-3.126l-5.051-2.263-4.587-1.147h-1.955a123.264,123.264,0,0,0,9.378,14.649c5.159,6.739,6.512,8.861,11.255,12.308s9.93,6.627,9.93,6.627a112.571,112.571,0,0,0,14.418,6.884c8.064,3.149,17.839,5.713,17.839,5.713l18.1,2.8,10.564.956-11.34-9.469-8.422-11.116-3.305-13.331Z" transform="translate(-2688.625 -649.18)"/>
          <path id="Path_180" data-name="Path 180" class="cls-12" d="M2113.3,991.42l-2.93-16.213,9.034-24.817-21.412,8.124-12.271,16.693-3.528,11.347v15.7l3.528-1.115,8.707-9.722,6.466-2.642Z" transform="translate(-1757.976 -730.694)"/>
          <path id="Path_181" data-name="Path 181" class="cls-13" d="M1920.629,1152.569l-29.04,6.209-4.777,7.652v4.852l4.777,7.344,4.07,4.574,17.014,7.064,2.223-18.982,7.906-16.22Z" transform="translate(-1769.439 -747.962)"/>
          <path id="Path_182" data-name="Path 182" class="cls-14" d="M1943.146,1153.779c1.5.2,5,1.211,10.444,5.371s7.954,6.261,9.994,9.77a28.6,28.6,0,0,1,2.981,6.63c.6,1.662,1.368,3.556,1.368,8.674,0,9.657.127,13.086-3.679,22.151s-6.7,10.467-14.014,13.956c-4.673,2.229-6.8,3.371-9.514,4.424a32.9,32.9,0,0,1-8.266,1.564c-5.478-.706-9.365-.367-15-1.564s11.17,9.683,11.17,9.683,14.172,3.048,19.991,3.623,4.176.771,8.084.624a35.219,35.219,0,0,0,7.55-1.214l6.631-5.462,8.565-11.677a46.064,46.064,0,0,0,6.741-11.04,60.189,60.189,0,0,0,3.432-13.608s.237-9.113-2.029-16.1a47.173,47.173,0,0,0-6.355-12.4,76.885,76.885,0,0,0-5.9-7.549,61.958,61.958,0,0,0-7.408-7.114c-2.677-2.285-6.983-5.13-12.273-5.565s-8.1-2.646-9.279-2.02-5.822,0-5.822,0l-7.911,2.02S1941.649,1153.578,1943.146,1153.779Z" transform="translate(-1751.027 -739.899)"/>
          <path id="Path_183" data-name="Path 183" class="cls-14" d="M26.843,8.946c1.5.2,5,1.211,10.444,5.371s7.954,6.262,9.993,9.771a28.6,28.6,0,0,1,2.981,6.63c.6,1.662,1.368,3.556,1.368,8.674,0,9.657.271,14.935-3.68,22.151S41.25,72.01,33.937,75.5c-4.673,2.229-6.8,3.371-9.514,4.424a32.9,32.9,0,0,1-8.266,1.563c-5.478-.706-9.365-.367-15-1.563s11.17,9.682,11.17,9.682S26.5,92.654,32.317,93.229s4.176.771,8.084.624a35.214,35.214,0,0,0,7.549-1.214l6.631-5.462L63.147,75.5a46.046,46.046,0,0,0,6.741-11.04,60.164,60.164,0,0,0,3.432-13.608s.237-9.113-2.029-16.1a47.173,47.173,0,0,0-6.355-12.4,76.9,76.9,0,0,0-5.9-7.549A61.951,61.951,0,0,0,51.63,7.7c-2.677-2.286-6.983-5.13-12.273-5.565s-8.1-2.645-9.279-2.02-5.823,0-5.823,0l-7.91,2.02S25.345,8.745,26.843,8.946Z" transform="translate(372.138 237.885) rotate(-60)"/>
          <path id="Path_184" data-name="Path 184" class="cls-14" d="M36.123,10c6.8,3.958,3.134,1.578,10.2,6.984,6.021,4.605,5.156,4.084,7.8,7.843.254.357,4.762,6.062,4.762,6.062A50.846,50.846,0,0,1,63,38.365c.78,2.159,3.873,12.71,3.873,19.359,0,12.546-2.049,12.879-7.216,23.455s-14.737,14.6-20.715,20.506c-6.071,2.9-6.113,2.857-11.242,5.282-5.778,2.105-2.536,2-10.5,3.706s-8.442,1.554-15.763,0S17.2,121.925,17.2,121.925s18.44-.746,26,0,5.789.192,10.866,0a10.5,10.5,0,0,0,7.643-3.519l10.78-5.154,11.127-15.17A59.819,59.819,0,0,0,92.369,83.74a78.152,78.152,0,0,0,4.458-17.678s.308-11.839-2.635-20.912a61.273,61.273,0,0,0-8.256-16.1,99.932,99.932,0,0,0-7.662-9.807A80.482,80.482,0,0,0,68.651,10c-3.478-2.969-9.071-6.664-15.944-7.229S42.186-.669,40.652.144s-7.564,0-7.564,0L22.812,2.768S29.322,6.039,36.123,10Z" transform="translate(104.051 171.067) rotate(180)"/>
          <path id="Path_185" data-name="Path 185" class="cls-15" d="M1857.284,1201.053l36.023-71.7s-27.149,5.188-36.023,23.593S1857.284,1201.053,1857.284,1201.053Z" transform="translate(-1766.669 -733.966)"/>
          <path id="Path_186" data-name="Path 186" class="cls-14" d="M981.518,1316.761s-2.45-24.206,3.183-41.983,21.466-26.255,21.466-26.255-31.414,4.142-35.172,23.6S981.518,1316.761,981.518,1316.761Z" transform="translate(-825.582 -840.998)"/>
          <path id="Path_187" data-name="Path 187" class="cls-14" d="M11.66,93.922S9.095,64.727,16.336,41.873,41.715,0,41.715,0,5.76,16.858.93,41.873,11.66,93.922,11.66,93.922Z" transform="translate(130.687 166.75) rotate(180)"/>
          <path id="Path_188" data-name="Path 188" class="cls-16" d="M11.66,93.922S9.095,64.727,16.336,41.873,41.715,0,41.715,0,5.76,16.858.93,41.873,11.66,93.922,11.66,93.922Z" transform="translate(156.372 180.58) rotate(180)"/>
          <path id="Path_189" data-name="Path 189" class="cls-14" d="M7.835,71.107S5.385,46.9,11.017,29.124,30.365,0,30.365,0,4.551,10.748.794,30.207,7.835,71.107,7.835,71.107Z" transform="translate(363.141 256.325) rotate(-60)"/>
          <path id="Path_190" data-name="Path 190" class="cls-17" d="M7.835,89.891s-2.45-30.6,3.183-53.073A89.5,89.5,0,0,1,30.365,0S4.551,13.587.794,38.186,7.835,89.891,7.835,89.891Z" transform="matrix(0.766, -0.643, 0.643, 0.766, 302.826, 294.847)"/>
          <path id="Path_191" data-name="Path 191" class="cls-17" d="M7.835,89.891s-2.45-30.6,3.183-53.073A89.5,89.5,0,0,1,30.365,0S4.551,13.587.794,38.186,7.835,89.891,7.835,89.891Z" transform="matrix(0.174, -0.985, 0.985, 0.174, 48.489, 218.986)"/>
        </g>
        <path id="Path_192" data-name="Path 192" class="cls-18" d="M1944.983,1309.8l61.059,31.868s7.172-50.506,18.245-89.116,34.2-74.939,34.2-74.939l-8.124-25.38-17.277-1.892s-10.462,46.871-32.487,86.736S1944.983,1309.8,1944.983,1309.8Z" transform="translate(-1186.746 135.799)"/>
        <path id="Path_193" data-name="Path 193" class="cls-18" d="M2153.277,1085.12l45.259-54.69,13.876-4.922-18.124,52.978s14.256-4.832,28.369-5.737a151.245,151.245,0,0,1,22.85,0l7.08,16.626s-11.462-.315-29.93,2.711-40.006,7.527-40.006,7.527Z" transform="translate(-1168.523 88.905)"/>
      </g>
      <path id="Path_194" data-name="Path 194" class="cls-19" d="M0,0H1041V1057H0Z" transform="translate(130 5438)"/>
    </g>
    <path id="Path_197" data-name="Path 197" class="cls-20" d="M8.4,0H118.65c55.3-3.15,89.95-26.6,89.95-70,0-31.15-24.5-58.8-89.95-60.55C169.4-133,198.8-156.8,198.8-191.1c0-27.3-23.1-53.9-67.9-53.9H8.4v5.6l22.05,2.8V-8.4L8.4-5.6ZM84.7-133V-236.6l24.15-2.8c22.75,0,35,19.25,35,48.65,0,33.6-14,57.75-36.75,57.75ZM106.75-5.6,84.7-8.4V-126.7h23.45c24.85,0,45.5,19.25,45.5,58.1C153.65-33.6,139.65-5.6,106.75-5.6ZM228.9,0H417.55V-70.35H411.6L381.15-8.4H305.2V-236.6l21.7-2.8V-245h-98v5.6l22.05,2.8V-8.4L228.9-5.6ZM544.25,5.95c67.9-12.95,82.6-46.2,82.6-87.85V-236.6l22.05-2.8V-245H593.95v5.6l22.75,2.8V-80.85c0,39.2-22.75,68.6-56.7,68.6-37.45,0-59.5-29.4-59.5-68.6V-236.6l22.05-2.8V-245h-98v5.6l21.7,2.8V-84.35C446.25-30.1,477.75,5.95,544.25,5.95ZM660.8,0H852.6V-68.6H847L821.8-6.65H737.1V-125.3h43.75l16.8,43.4h5.95v-93.45h-5.95l-16.8,43.75H737.1V-238.7h83.3L847-178.5h5.6V-245H660.8v5.6l22.05,2.8V-8.4L660.8-5.6ZM871.85,0H975.1V-5.6L948.15-8.4V-120.05H991.9l16.8,46.2h5.95v-98.7h-5.95l-16.8,46.2H948.15V-238.7h80.15l28.7,62.65h5.6V-245H871.85v5.6l22.05,2.8V-8.4L871.85-5.6ZM1075.2,0h98V-5.6l-21.7-2.8V-236.6l21.7-2.8V-245h-98v5.6l22.05,2.8V-8.4L1075.2-5.6Zm115.15,0h191.8V-68.6h-5.6l-25.2,61.95h-84.7V-125.3h43.75l16.8,43.4h5.95v-93.45h-5.95l-16.8,43.75h-43.75V-238.7h83.3l26.6,60.2h5.6V-245h-191.8v5.6l22.05,2.8V-8.4l-22.05,2.8ZM1401.4,0h188.65V-70.35h-5.95L1553.65-8.4H1477.7V-236.6l21.7-2.8V-245h-98v5.6l22.05,2.8V-8.4L1401.4-5.6Zm200.55,0H1716.4c82.6-5.6,119.7-56,119.7-128.1,0-72.45-42-116.9-118.65-116.9h-115.5v5.6l23.45,2.8V-8.4l-23.45,2.8Zm106.4-5.6-28.7-2.8V-236.6l26.6-2.8c51.1,0,72.1,47.95,72.1,112.7C1778.35-54.95,1751.05-5.6,1708.35-5.6ZM8.4,325h98.7v-5.6l-22.4-2.8V215.45H112c50.05-11.55,91-26.6,91-73.15C203,99.25,168,80,128.1,80H8.4v5.6l22.05,2.8V316.6L8.4,319.4ZM84.7,208.8V88.4l22.4-2.8c26.6,0,38.5,26.6,38.5,59.85,0,37.45-17.5,63.35-42.7,63.35ZM424.55,316.6l-53.2-96.25-58.8-11.9c59.85-5.25,97.3-26.95,97.3-68.25,0-42.7-34.65-60.2-72.1-60.2H215.6v5.6l22.05,2.8V316.6l-22.05,2.8V325h96.6v-5.6l-20.3-2.8V209.15h16.8L368.55,325H438.9v-5.6ZM304.5,202.5H291.9V88.4l21-2.8c22.05.35,38.5,22.75,38.5,57.75C351.4,179.05,335.3,202.5,304.5,202.5ZM449.05,325h191.8V256.4h-5.6l-25.2,61.95h-84.7V199.7H569.1l16.8,43.4h5.95V149.65H585.9L569.1,193.4H525.35V86.3h83.3l26.6,60.2h5.6V80H449.05v5.6l22.05,2.8V316.6l-22.05,2.8Zm289.45,5.95c66.5-15.05,91-42.35,91-77.7,0-27.65-12.25-44.8-40.6-62.65l-45.15-30.1c-19.6-12.25-31.85-23.45-31.85-42.7,0-22.75,16.8-36.05,39.9-36.05,16.1,0,29.05,6.65,39.9,17.85l22.4,50.75h5.6V86.65c-25.2-9.45-39.9-12.6-68.95-12.6-61.95,10.85-84.7,36.75-84.7,69.65,0,28.7,16.1,43.05,39.9,58.8l46.2,30.8C777,248.7,786.1,262,786.1,281.25c0,23.8-17.15,39.2-42.7,39.2-22.75,0-39.9-14.35-53.9-30.8L670.6,244.5H665v65.1C688.8,324.3,709.8,330.95,738.5,330.95ZM849.8,325h191.8V256.4H1036l-25.2,61.95H926.1V199.7h43.75l16.8,43.4h5.95V149.65h-5.95l-16.8,43.75H926.1V86.3h83.3l26.6,60.2h5.6V80H849.8v5.6l22.05,2.8V316.6l-22.05,2.8Zm420-8.4-53.2-96.25-58.8-11.9c59.85-5.25,97.3-26.95,97.3-68.25,0-42.7-34.65-60.2-72.1-60.2H1060.85v5.6l22.05,2.8V316.6l-22.05,2.8V325h96.6v-5.6l-20.3-2.8V209.15h16.8L1213.8,325h70.35v-5.6ZM1149.75,202.5h-12.6V88.4l21-2.8c22.05.35,38.5,22.75,38.5,57.75C1196.65,179.05,1180.55,202.5,1149.75,202.5ZM1392.3,330.25l37.8-10.15,77-231.7,23.1-2.8V80h-59.15v5.6l26.6,2.8-65.1,195.3L1367.1,88.4l25.55-2.8V80h-105v5.6l19.95,2.8ZM1533.7,325h57.4v-5.6l-27.3-2.8,26.25-77.35h81.55l24.85,77.35-27.3,2.8V325h107.1v-5.6l-20.3-2.8L1675.1,74.4l-41.65,16.45L1554,316.6l-20.3,2.8Zm58.8-93.1,39.9-116.2,37.1,116.2ZM1822.8,325h113.75v-5.6l-29.75-2.8V86.3h35l30.1,65.8h5.95V80H1781.5v72.1h5.6l30.1-65.8h35.35V316.6l-29.75,2.8Zm166.95,0h98v-5.6l-21.7-2.8V88.4l21.7-2.8V80h-98v5.6l22.05,2.8V316.6l-22.05,2.8Zm237.65,5.95c86.8-17.15,126.7-58.8,126.7-133,0-73.15-46.9-123.9-119-123.9-86.8,17.15-126.7,58.8-126.7,133C2108.4,280.2,2155.65,330.95,2227.4,330.95Zm10.85-9.45c-39.55,0-67.9-52.5-67.9-127.05,0-58.8,17.5-110.95,54.25-110.95,39.55,0,67.9,52.85,67.9,127.05C2292.5,269.35,2275,321.5,2238.25,321.5Zm314.3,5.25h26.25V88.4l21.7-2.8V80h-53.9v5.6l24.5,2.8v161L2459.8,80h-85.05v5.6l22.05,2.8V316.6l-22.05,2.8V325H2429v-5.6l-24.85-2.8V97.5ZM86.8,655.95c66.5-15.05,91-42.35,91-77.7,0-27.65-12.25-44.8-40.6-62.65L92.05,485.5c-19.6-12.25-31.85-23.45-31.85-42.7,0-22.75,16.8-36.05,39.9-36.05,16.1,0,29.05,6.65,39.9,17.85l22.4,50.75H168v-63.7c-25.2-9.45-39.9-12.6-68.95-12.6C37.1,409.9,14.35,435.8,14.35,468.7c0,28.7,16.1,43.05,39.9,58.8l46.2,30.8c24.85,15.4,33.95,28.7,33.95,47.95,0,23.8-17.15,39.2-42.7,39.2-22.75,0-39.9-14.35-53.9-30.8L18.9,569.5H13.3v65.1C37.1,649.3,58.1,655.95,86.8,655.95Zm233.8,0c86.8-17.15,126.7-58.8,126.7-133,0-73.15-46.9-123.9-119-123.9-86.8,17.15-126.7,58.8-126.7,133C201.6,605.2,248.85,655.95,320.6,655.95Zm10.85-9.45c-39.55,0-67.9-52.5-67.9-127.05,0-58.8,17.5-110.95,54.25-110.95,39.55,0,67.9,52.85,67.9,127.05C385.7,594.35,368.2,646.5,331.45,646.5Zm269.15,9.45c36.75-3.5,57.05-9.1,86.1-20.65V569.5h-5.6l-27.3,60.55a63.314,63.314,0,0,1-44.1,18.2c-51.8,0-76.3-52.85-76.3-122.15,0-80.5,32.55-120.4,74.55-120.4,21.35,0,34.3,7.7,45.5,19.6l27.3,56.7h5.95V416.55c-23.1-10.85-45.5-17.5-81.55-17.5-82.95,8.75-133.7,53.2-133.7,134.4C471.45,615,531.3,655.95,600.6,655.95ZM710.5,650h98v-5.6l-21.7-2.8V413.4l21.7-2.8V405h-98v5.6l22.05,2.8V641.6l-22.05,2.8Zm115.15,0h191.8V581.4h-5.6l-25.2,61.95h-84.7V524.7H945.7l16.8,43.4h5.95V474.65H962.5L945.7,518.4H901.95V411.3h83.3l26.6,60.2h5.6V405H825.65v5.6l22.05,2.8V641.6l-22.05,2.8Zm247.45,0h113.75v-5.6l-29.75-2.8V411.3h35l30.1,65.8h5.95V405H1031.8v72.1h5.6l30.1-65.8h35.35V641.6l-29.75,2.8Zm223.3,0h121.8v-5.6l-33.6-2.8V551.3l67.9-137.9,22.05-2.8V405h-59.5v5.6l29.75,2.8-63,126.7-63-126.7,27.3-2.8V405H1233.4v5.6l22.05,2.8,74.9,141.4v86.8l-33.95,2.8Z" transform="translate(1292 5754)"/>
  </g>
</svg>
